<svg xmlns="http://www.w3.org/2000/svg" xmlns:xlink="http://www.w3.org/1999/xlink" viewBox="0 0 260 60"><defs><style>.cls-1,.cls-2,.cls-5{fill:none;}.cls-1{clip-rule:evenodd;}.cls-3{clip-path:url(#clip-path);}.cls-4{clip-path:url(#clip-path-2);}.cls-5{stroke:#fff;stroke-miterlimit:10;stroke-width:2px;opacity:0.6;}.cls-6{clip-path:url(#clip-path-3);}.cls-7{fill:#fff;}</style><clipPath id="clip-path" transform="translate(-50 -482)"><path class="cls-1" d="M51,512a29,29,0,0,1,29-29H280a29,29,0,0,1,0,58H80A29,29,0,0,1,51,512Z"/></clipPath><clipPath id="clip-path-2" transform="translate(-50 -482)"><rect class="cls-2" width="360" height="640"/></clipPath><clipPath id="clip-path-3" transform="translate(-50 -482)"><path class="cls-2" d="M204.53,505.85c2.69,0,4.06,1.49,4.06,4.47V517H206.9v-6.55c0-2.12-1-3.17-2.85-3.17a2.63,2.63,0,0,0-2,.82,3.45,3.45,0,0,0-1,2.35V517h-1.68V506.14h1.68v1.6a3.86,3.86,0,0,1,1.45-1.39A3.93,3.93,0,0,1,204.53,505.85ZM194.81,502h1.7v15h-1.7Zm-15,5.22a3,3,0,0,0-2.54,1.18,4.48,4.48,0,0,0-.88,2.92,4.58,4.58,0,0,0,.78,2.79,3,3,0,0,0,2.62,1.22,3.16,3.16,0,0,0,2.57-1.13,5.22,5.22,0,0,0,0-5.8A3,3,0,0,0,179.79,507.23Zm-.25-1.38A3.91,3.91,0,0,1,183.2,508v-1.87h1.68v10.1c0,3.47-1.66,5.21-5,5.21a5.43,5.43,0,0,1-3.36-.88,3.94,3.94,0,0,1-1.45-2.65h1.68a2.37,2.37,0,0,0,.92,1.62,3.71,3.71,0,0,0,2.21.55c2.18,0,3.28-1.22,3.28-3.62v-1.91a3.93,3.93,0,0,1-3.66,2.19,4.49,4.49,0,0,1-3.59-1.56,6.41,6.41,0,0,1,0-7.74A4.37,4.37,0,0,1,179.54,505.85Zm-11.93,1.41a3.11,3.11,0,0,0-2.68,1.32,5.63,5.63,0,0,0,0,6,3.09,3.09,0,0,0,2.68,1.33,3.21,3.21,0,0,0,2.71-1.33,5.63,5.63,0,0,0,0-6A3.22,3.22,0,0,0,167.61,507.26Zm0-1.41a4.86,4.86,0,0,1,3.89,1.68,6.61,6.61,0,0,1,0,8.06,4.91,4.91,0,0,1-3.91,1.7,4.81,4.81,0,0,1-3.88-1.7,5.83,5.83,0,0,1-1.39-4,5.93,5.93,0,0,1,1.39-4.05A4.83,4.83,0,0,1,167.61,505.85Zm-17-3.84h1.7v13.5H161V517H150.63Z"/></clipPath></defs><title>资源 13</title><g id="图层_2" data-name="图层 2"><g id="图层_1-2" data-name="图层 1"><g class="cls-3"><g class="cls-4"><path class="cls-5" d="M51,512a29,29,0,0,1,29-29H280a29,29,0,0,1,0,58H80A29,29,0,0,1,51,512Z" transform="translate(-50 -482)"/></g></g><g class="cls-6"><g class="cls-4"><rect class="cls-7" x="95.63" y="15.01" width="67.96" height="29.45"/></g></g></g></g></svg>