<svg xmlns="http://www.w3.org/2000/svg" xmlns:xlink="http://www.w3.org/1999/xlink" viewBox="0 0 163 163"><defs><style>.cls-1{fill:none;}.cls-2{clip-path:url(#clip-path);}.cls-3{clip-path:url(#clip-path-2);}.cls-4{fill:#fff;}</style><clipPath id="clip-path" transform="translate(-98 -130)"><path class="cls-1" d="M247,274.51v-90a4.49,4.49,0,0,0-4.48-4.49h-126a4.49,4.49,0,0,0-4.48,4.49v90a4.49,4.49,0,0,0,4.48,4.49h126A4.49,4.49,0,0,0,247,274.51ZM192.42,243H220a17.85,17.85,0,0,0-30-13.22,13.46,13.46,0,0,1,3.19,8.72A13.67,13.67,0,0,1,192.42,243ZM167,261h25a13.18,13.18,0,0,0-25,0Zm-28-18h27.58a13.67,13.67,0,0,1-.77-4.5,13.46,13.46,0,0,1,3.19-8.72A17.85,17.85,0,0,0,139,243Zm18-45a9,9,0,1,0,9,9A9,9,0,0,0,157,198Zm22.5,36a4.5,4.5,0,1,0,4.5,4.5A4.51,4.51,0,0,0,179.5,234ZM202,198a9,9,0,1,0,9,9A9,9,0,0,0,202,198Zm13.05,21.37A27,27,0,0,1,229,243v4.5a4.5,4.5,0,0,1-4.5,4.5h-27A22.39,22.39,0,0,1,202,265.5a4.5,4.5,0,0,1-4.5,4.5h-36a4.5,4.5,0,0,1-4.5-4.5A22.47,22.47,0,0,1,161.51,252h-27a4.47,4.47,0,0,1-4.5-4.47V243A27,27,0,0,1,144,219.37a18,18,0,1,1,26.11,0,27.09,27.09,0,0,1,7.23,5.81,13.66,13.66,0,0,1,4.42,0,27.09,27.09,0,0,1,7.23-5.81,18,18,0,1,1,26.11,0ZM125.5,270a4.5,4.5,0,1,1,4.5-4.5A4.5,4.5,0,0,1,125.5,270Zm0-72a4.5,4.5,0,1,1,4.5-4.5A4.5,4.5,0,0,1,125.5,198Zm108,72a4.5,4.5,0,1,1,4.5-4.5A4.5,4.5,0,0,1,233.5,270Zm0-72a4.5,4.5,0,1,1,4.5-4.5A4.5,4.5,0,0,1,233.5,198Zm-61.41-39L157,171h45l-15.09-12a12.9,12.9,0,0,1-14.82,0Zm7.41-15a4.5,4.5,0,1,0,4.5,4.5A4.51,4.51,0,0,0,179.5,144Zm63.05,27.16A13.46,13.46,0,0,1,256,184.6v90A13.46,13.46,0,0,1,242.55,288H116.45A13.46,13.46,0,0,1,103,274.55v-90a13.46,13.46,0,0,1,13.45-13.44h25.68l24.55-18.67a13.14,13.14,0,0,1-.63-4,13.45,13.45,0,0,1,26.9,0,13.14,13.14,0,0,1-.63,4l24.55,18.67Z"/></clipPath><clipPath id="clip-path-2" transform="translate(-98 -130)"><rect class="cls-1" width="360" height="640"/></clipPath></defs><title>资源 14</title><g id="图层_2" data-name="图层 2"><g id="图层_1-2" data-name="图层 1"><g class="cls-2"><g class="cls-3"><rect class="cls-4" width="163" height="163"/></g></g></g></g></svg>