<svg xmlns="http://www.w3.org/2000/svg" xmlns:xlink="http://www.w3.org/1999/xlink" viewBox="0 0 268 68"><defs><style>.cls-1,.cls-2{fill:none;}.cls-1{clip-rule:evenodd;}.cls-3{clip-path:url(#clip-path);}.cls-4{clip-path:url(#clip-path-2);}.cls-5{fill:#3b55e7;}.cls-6{clip-path:url(#clip-path-3);}.cls-7{fill:#fff;}</style><clipPath id="clip-path" transform="translate(-46 -401)"><path class="cls-1" d="M51,435a29,29,0,0,1,29-29H280a29,29,0,0,1,0,58H80a29,29,0,0,1-29-29"/></clipPath><clipPath id="clip-path-2" transform="translate(-46 -401)"><rect class="cls-2" width="360" height="640"/></clipPath><clipPath id="clip-path-3" transform="translate(-46 -401)"><path class="cls-2" d="M211.47,430.7a2.76,2.76,0,0,0-2.42,1.22,4.77,4.77,0,0,0-.78,2.84v.2a4.44,4.44,0,0,0,.88,2.9,2.71,2.71,0,0,0,2.26,1.1A3,3,0,0,0,214,437.8a4.93,4.93,0,0,0,.78-2.94,5.21,5.21,0,0,0-.74-2.92A2.86,2.86,0,0,0,211.47,430.7Zm.2-1.32a4.19,4.19,0,0,1,3.52,1.66,6,6,0,0,1,1.18,3.82,6.08,6.08,0,0,1-1.16,3.78,4.14,4.14,0,0,1-3.46,1.64,3.74,3.74,0,0,1-3.42-2.16V444h-1.6v-14.3h1.5v1.7A3.67,3.67,0,0,1,211.67,429.38Zm-19-3.66h1.64v8.82a4.65,4.65,0,0,0,.94,3.18,4,4,0,0,0,3.12,1.12,4,4,0,0,0,3.12-1.12,4.75,4.75,0,0,0,.94-3.18v-8.82h1.64v8.8a5.92,5.92,0,0,1-1.42,4.26,6.86,6.86,0,0,1-8.54,0,5.92,5.92,0,0,1-1.44-4.28Zm-13.2,3.66c2.56,0,3.86,1.42,3.86,4.26V440h-1.6v-6.24c0-2-.92-3-2.72-3a2.54,2.54,0,0,0-1.86.78,3.33,3.33,0,0,0-.92,2.24V440h-1.6V429.66h1.6v1.52a3.63,3.63,0,0,1,1.38-1.32A3.68,3.68,0,0,1,179.45,429.38Zm-12.16,1.32a2.85,2.85,0,0,0-2.42,1.12,4.27,4.27,0,0,0-.84,2.78,4.41,4.41,0,0,0,.74,2.66,2.9,2.9,0,0,0,2.5,1.16,3,3,0,0,0,2.44-1.08,5,5,0,0,0,0-5.52A2.9,2.9,0,0,0,167.29,430.7Zm-.24-1.32a3.72,3.72,0,0,1,3.48,2.06v-1.78h1.6v9.62c0,3.3-1.58,5-4.72,5a5.18,5.18,0,0,1-3.2-.84,3.75,3.75,0,0,1-1.38-2.52h1.6a2.25,2.25,0,0,0,.88,1.54,3.53,3.53,0,0,0,2.1.52c2.08,0,3.12-1.16,3.12-3.44v-1.82a3.73,3.73,0,0,1-3.48,2.08,4.28,4.28,0,0,1-3.42-1.48,6.11,6.11,0,0,1,0-7.38A4.19,4.19,0,0,1,167.05,429.38Zm-8.86.28h1.6V440h-1.6Zm.8-3.9a1.15,1.15,0,0,1,.86.34,1,1,0,0,1,.36.84,1.16,1.16,0,0,1-.36.86,1.26,1.26,0,0,1-1.72,0,1.15,1.15,0,0,1-.34-.86,1,1,0,0,1,.34-.84A1.15,1.15,0,0,1,159,425.76Zm-9-.32a5.93,5.93,0,0,1,3.8,1.1,4.66,4.66,0,0,1,1.64,3.4h-1.62a3.61,3.61,0,0,0-1.2-2.3,4.17,4.17,0,0,0-2.7-.76,4.82,4.82,0,0,0-2.48.52,2,2,0,0,0,.2,3.56,16.62,16.62,0,0,0,2.62.9,19.25,19.25,0,0,1,3.72,1.38,3.37,3.37,0,0,1,1.78,3,3.47,3.47,0,0,1-1.5,3,6.91,6.91,0,0,1-4,1.06,6.47,6.47,0,0,1-4-1.08,5.09,5.09,0,0,1-1.86-3.92h1.62a3.92,3.92,0,0,0,1.3,2.74,4.6,4.6,0,0,0,2.9.8,5.43,5.43,0,0,0,2.84-.66,2,2,0,0,0,1.08-1.8,2.32,2.32,0,0,0-1.42-2.1,17.16,17.16,0,0,0-3-1,23.9,23.9,0,0,1-3.28-1.16,3,3,0,0,1-1.64-2.76,3.26,3.26,0,0,1,1.58-2.9A6.36,6.36,0,0,1,150,425.44Z"/></clipPath></defs><title>资源 12</title><g id="图层_2" data-name="图层 2"><g id="图层_1-2" data-name="图层 1"><g class="cls-3"><g class="cls-4"><rect class="cls-5" width="268" height="68"/></g></g><g class="cls-6"><g class="cls-4"><rect class="cls-7" x="93.43" y="19.44" width="81.94" height="28.8"/></g></g></g></g></svg>