<svg xmlns="http://www.w3.org/2000/svg" viewBox="0 0 70.69 70.69"><defs><style>.cls-1{fill:#262627;}</style></defs><title>资源 4</title><g id="图层_2" data-name="图层 2"><g id="图层_1-2" data-name="图层 1"><path class="cls-1" d="M53.25,33H37.5V17.28a2.31,2.31,0,1,0-4.62,0V33H17.14a2.31,2.31,0,0,0,0,4.62H32.88V53.39a2.31,2.31,0,0,0,4.62,0V37.65H53.25a2.31,2.31,0,0,0,0-4.62Z"/><path class="cls-1" d="M49.54,4.53A16.63,16.63,0,0,1,66.16,21.15V49.54A16.63,16.63,0,0,1,49.54,66.16H21.15A16.63,16.63,0,0,1,4.53,49.54V21.15A16.63,16.63,0,0,1,21.15,4.53H49.54m0-4.53H21.15A21.22,21.22,0,0,0,0,21.15V49.54A21.22,21.22,0,0,0,21.15,70.69H49.54A21.22,21.22,0,0,0,70.69,49.54V21.15A21.22,21.22,0,0,0,49.54,0Z"/></g></g></svg>