<svg xmlns="http://www.w3.org/2000/svg" viewBox="0 0 70.92 70.92"><defs><style>.cls-1{fill:#999;}</style></defs><title>资源 5</title><g id="图层_2" data-name="图层 2"><g id="图层_1-2" data-name="图层 1"><path class="cls-1" d="M35.46,70.92A35.46,35.46,0,1,1,70.92,35.46,35.5,35.5,0,0,1,35.46,70.92Zm0-66.37A30.91,30.91,0,1,0,66.37,35.46,30.95,30.95,0,0,0,35.46,4.55Z"/><path class="cls-1" d="M23.39,54.52a2.24,2.24,0,0,1-1.27-.39,2.28,2.28,0,0,1-1-2.38l2.92-13.2L14,30.71a2.28,2.28,0,0,1,1.4-4.07H28l5.41-12.47A2.28,2.28,0,0,1,37.55,16l-6,13.84a2.28,2.28,0,0,1-2.09,1.37H22l6,4.66a2.26,2.26,0,0,1,.82,2.28l-2,8.95L34.17,42a2.28,2.28,0,0,1,2.58,3.75L24.68,54.11A2.27,2.27,0,0,1,23.39,54.52Z"/><path class="cls-1" d="M47.53,54.52a2.27,2.27,0,0,1-1.29-.41L34.17,45.77A2.28,2.28,0,0,1,36.75,42l7.31,5.06-2-8.95a2.26,2.26,0,0,1,.82-2.28l6-4.66H41.46a2.27,2.27,0,0,1-2.08-1.37L33.37,16a2.28,2.28,0,0,1,4.18-1.81L43,26.64H55.5a2.27,2.27,0,0,1,1.39,4.07l-10,7.84,2.91,13.2a2.28,2.28,0,0,1-2.22,2.77Z"/></g></g></svg>