<svg xmlns="http://www.w3.org/2000/svg" viewBox="0 0 72.25 73.96"><defs><style>.cls-1{fill:#262627;}</style></defs><title>资源 1</title><g id="图层_2" data-name="图层 2"><g id="图层_1-2" data-name="图层 1"><path class="cls-1" d="M67.87,74h0c-.38,0-.8,0-1.25,0s-.85,0-1.3,0H48.45c-.45,0-.89,0-1.3,0s-.86,0-1.25,0C42,74,41.52,71,41.52,69.75V51.36c0-2-3.09-3.92-5.4-3.92s-5.4,1.94-5.4,3.92V69.75c0,1.26-.43,4.21-4.37,4.21-.39,0-.81,0-1.25,0s-.85,0-1.3,0H6.93c-.46,0-.9,0-1.31,0s-.86,0-1.24,0C.43,74,0,71,0,69.75V36.19A6.19,6.19,0,0,1,2.41,31.1l.52-.51L31.45,1.94a6.6,6.6,0,0,1,9.35,0l29,29.16a6.19,6.19,0,0,1,2.41,5.09V69.75a4,4,0,0,1-1.48,3.39A4.7,4.7,0,0,1,67.87,74Zm-31.75-31c4.59,0,9.93,3.69,9.93,8.45V69.43l.84,0c.49,0,1-.06,1.56-.06H65.32c.55,0,1.07,0,1.56.06l.84,0V36.19c0-.84,0-.88-1-1.84l-.57-.57L37.59,5.14a2.11,2.11,0,0,0-2.93,0L5.56,34.35c-1,1-1,1-1,1.84V69.43l.83,0c.49,0,1-.06,1.57-.06H23.8c.54,0,1.07,0,1.56.06l.83,0V51.36C26.19,46.6,31.53,42.91,36.12,42.91Z"/></g></g></svg>